<mxfile host="Electron" agent="Mozilla/5.0 (Windows NT 10.0; Win64; x64) AppleWebKit/537.36 (KHTML, like Gecko) draw.io/25.0.2 Chrome/128.0.6613.186 Electron/32.2.5 Safari/537.36" version="25.0.2">
  <diagram name="Page-1" id="7tkbG4fvcD0iLKFeYTn3">
    <mxGraphModel dx="600" dy="388" grid="1" gridSize="10" guides="1" tooltips="1" connect="1" arrows="1" fold="1" page="1" pageScale="1" pageWidth="570" pageHeight="940" math="0" shadow="0">
      <root>
        <mxCell id="0" />
        <mxCell id="1" parent="0" />
        <mxCell id="_dNeO-rMjUpHWyYNU2Kq-1" value="" style="group" vertex="1" connectable="0" parent="1">
          <mxGeometry x="220" width="287.5" height="310" as="geometry" />
        </mxCell>
        <mxCell id="_dNeO-rMjUpHWyYNU2Kq-2" value="P&lt;sub&gt;1&lt;/sub&gt;" style="ellipse;whiteSpace=wrap;html=1;aspect=fixed;fillColor=none;" vertex="1" parent="_dNeO-rMjUpHWyYNU2Kq-1">
          <mxGeometry y="70" width="40" height="40" as="geometry" />
        </mxCell>
        <mxCell id="_dNeO-rMjUpHWyYNU2Kq-3" value="R&lt;sub&gt;1&lt;/sub&gt;" style="whiteSpace=wrap;html=1;aspect=fixed;strokeColor=default;fillColor=none;" vertex="1" parent="_dNeO-rMjUpHWyYNU2Kq-1">
          <mxGeometry x="2.5" y="150" width="35" height="35" as="geometry" />
        </mxCell>
        <mxCell id="_dNeO-rMjUpHWyYNU2Kq-4" value="R&lt;sub&gt;2&lt;/sub&gt;" style="whiteSpace=wrap;html=1;aspect=fixed;strokeColor=default;fillColor=none;" vertex="1" parent="_dNeO-rMjUpHWyYNU2Kq-1">
          <mxGeometry x="90" y="75" width="35" height="35" as="geometry" />
        </mxCell>
        <mxCell id="_dNeO-rMjUpHWyYNU2Kq-5" value="" style="endArrow=open;html=1;rounded=0;endFill=0;exitX=1;exitY=0.5;exitDx=0;exitDy=0;entryX=0;entryY=0.426;entryDx=0;entryDy=0;entryPerimeter=0;" edge="1" parent="_dNeO-rMjUpHWyYNU2Kq-1" source="_dNeO-rMjUpHWyYNU2Kq-2" target="_dNeO-rMjUpHWyYNU2Kq-4">
          <mxGeometry width="50" height="50" relative="1" as="geometry">
            <mxPoint x="40" y="200" as="sourcePoint" />
            <mxPoint x="90" y="150" as="targetPoint" />
          </mxGeometry>
        </mxCell>
        <mxCell id="_dNeO-rMjUpHWyYNU2Kq-6" value="P&lt;sub&gt;2&lt;/sub&gt;" style="ellipse;whiteSpace=wrap;html=1;aspect=fixed;fillColor=none;" vertex="1" parent="_dNeO-rMjUpHWyYNU2Kq-1">
          <mxGeometry x="247.5" y="137.5" width="40" height="40" as="geometry" />
        </mxCell>
        <mxCell id="_dNeO-rMjUpHWyYNU2Kq-7" value="R&lt;sub&gt;3&lt;/sub&gt;" style="whiteSpace=wrap;html=1;aspect=fixed;strokeColor=default;fillColor=none;" vertex="1" parent="_dNeO-rMjUpHWyYNU2Kq-1">
          <mxGeometry x="182.5" y="142.5" width="35" height="35" as="geometry" />
        </mxCell>
        <mxCell id="_dNeO-rMjUpHWyYNU2Kq-8" value="P&lt;sub&gt;3&lt;/sub&gt;" style="ellipse;whiteSpace=wrap;html=1;aspect=fixed;fillColor=none;" vertex="1" parent="_dNeO-rMjUpHWyYNU2Kq-1">
          <mxGeometry x="87.5" width="40" height="40" as="geometry" />
        </mxCell>
        <mxCell id="_dNeO-rMjUpHWyYNU2Kq-9" value="" style="endArrow=open;html=1;rounded=0;endFill=0;exitX=0.5;exitY=1;exitDx=0;exitDy=0;entryX=0.5;entryY=0;entryDx=0;entryDy=0;" edge="1" parent="_dNeO-rMjUpHWyYNU2Kq-1" source="_dNeO-rMjUpHWyYNU2Kq-8" target="_dNeO-rMjUpHWyYNU2Kq-4">
          <mxGeometry width="50" height="50" relative="1" as="geometry">
            <mxPoint x="100" y="100" as="sourcePoint" />
            <mxPoint x="150" y="50" as="targetPoint" />
          </mxGeometry>
        </mxCell>
        <mxCell id="_dNeO-rMjUpHWyYNU2Kq-10" value="P&lt;span style=&quot;font-size: 10px;&quot;&gt;&lt;sub&gt;4&lt;/sub&gt;&lt;/span&gt;" style="ellipse;whiteSpace=wrap;html=1;aspect=fixed;fillColor=none;" vertex="1" parent="_dNeO-rMjUpHWyYNU2Kq-1">
          <mxGeometry x="87.5" y="140" width="40" height="40" as="geometry" />
        </mxCell>
        <mxCell id="_dNeO-rMjUpHWyYNU2Kq-11" value="R&lt;sub&gt;4&lt;/sub&gt;" style="whiteSpace=wrap;html=1;aspect=fixed;strokeColor=default;fillColor=none;" vertex="1" parent="_dNeO-rMjUpHWyYNU2Kq-1">
          <mxGeometry x="90" y="210" width="35" height="35" as="geometry" />
        </mxCell>
        <mxCell id="_dNeO-rMjUpHWyYNU2Kq-12" value="" style="endArrow=open;html=1;rounded=0;endFill=0;exitX=0.5;exitY=0;exitDx=0;exitDy=0;entryX=0.5;entryY=1;entryDx=0;entryDy=0;" edge="1" parent="_dNeO-rMjUpHWyYNU2Kq-1">
          <mxGeometry width="50" height="50" relative="1" as="geometry">
            <mxPoint x="107.32999999999998" y="140" as="sourcePoint" />
            <mxPoint x="107.32999999999998" y="110" as="targetPoint" />
            <Array as="points">
              <mxPoint x="107.32999999999998" y="120" />
            </Array>
          </mxGeometry>
        </mxCell>
        <mxCell id="_dNeO-rMjUpHWyYNU2Kq-13" value="" style="endArrow=open;html=1;rounded=0;endFill=0;exitX=1;exitY=0.5;exitDx=0;exitDy=0;entryX=0;entryY=0.5;entryDx=0;entryDy=0;" edge="1" parent="_dNeO-rMjUpHWyYNU2Kq-1" source="_dNeO-rMjUpHWyYNU2Kq-10" target="_dNeO-rMjUpHWyYNU2Kq-7">
          <mxGeometry width="50" height="50" relative="1" as="geometry">
            <mxPoint x="130" y="160" as="sourcePoint" />
            <mxPoint x="180" y="160" as="targetPoint" />
          </mxGeometry>
        </mxCell>
        <mxCell id="_dNeO-rMjUpHWyYNU2Kq-14" value="P&lt;span style=&quot;font-size: 10px;&quot;&gt;&lt;sub&gt;5&lt;/sub&gt;&lt;/span&gt;" style="ellipse;whiteSpace=wrap;html=1;aspect=fixed;fillColor=none;" vertex="1" parent="_dNeO-rMjUpHWyYNU2Kq-1">
          <mxGeometry x="180" y="205" width="40" height="40" as="geometry" />
        </mxCell>
        <mxCell id="_dNeO-rMjUpHWyYNU2Kq-15" style="edgeStyle=orthogonalEdgeStyle;rounded=0;orthogonalLoop=1;jettySize=auto;html=1;entryX=1;entryY=0.5;entryDx=0;entryDy=0;exitX=0.5;exitY=1;exitDx=0;exitDy=0;endArrow=open;endFill=0;" edge="1" parent="_dNeO-rMjUpHWyYNU2Kq-1" source="_dNeO-rMjUpHWyYNU2Kq-16" target="_dNeO-rMjUpHWyYNU2Kq-24">
          <mxGeometry relative="1" as="geometry">
            <Array as="points">
              <mxPoint x="267" y="250" />
              <mxPoint x="267" y="250" />
              <mxPoint x="267" y="290" />
            </Array>
          </mxGeometry>
        </mxCell>
        <mxCell id="_dNeO-rMjUpHWyYNU2Kq-16" value="R&lt;sub&gt;5&lt;/sub&gt;" style="whiteSpace=wrap;html=1;aspect=fixed;strokeColor=default;fillColor=none;" vertex="1" parent="_dNeO-rMjUpHWyYNU2Kq-1">
          <mxGeometry x="250" y="205" width="35" height="35" as="geometry" />
        </mxCell>
        <mxCell id="_dNeO-rMjUpHWyYNU2Kq-17" value="" style="endArrow=open;html=1;rounded=0;endFill=0;exitX=1;exitY=0.5;exitDx=0;exitDy=0;entryX=0.002;entryY=0.575;entryDx=0;entryDy=0;entryPerimeter=0;" edge="1" parent="_dNeO-rMjUpHWyYNU2Kq-1" source="_dNeO-rMjUpHWyYNU2Kq-14" target="_dNeO-rMjUpHWyYNU2Kq-16">
          <mxGeometry width="50" height="50" relative="1" as="geometry">
            <mxPoint x="210" y="224.89" as="sourcePoint" />
            <mxPoint x="265" y="224.89" as="targetPoint" />
          </mxGeometry>
        </mxCell>
        <mxCell id="_dNeO-rMjUpHWyYNU2Kq-18" value="" style="endArrow=open;html=1;rounded=0;endFill=0;exitX=1;exitY=0.5;exitDx=0;exitDy=0;entryX=0.002;entryY=0.575;entryDx=0;entryDy=0;entryPerimeter=0;" edge="1" parent="_dNeO-rMjUpHWyYNU2Kq-1">
          <mxGeometry width="50" height="50" relative="1" as="geometry">
            <mxPoint x="247" y="160" as="sourcePoint" />
            <mxPoint x="217" y="160" as="targetPoint" />
          </mxGeometry>
        </mxCell>
        <mxCell id="_dNeO-rMjUpHWyYNU2Kq-19" value="P&lt;span style=&quot;font-size: 10px;&quot;&gt;&lt;sub&gt;6&lt;/sub&gt;&lt;/span&gt;" style="ellipse;whiteSpace=wrap;html=1;aspect=fixed;fillColor=none;" vertex="1" parent="_dNeO-rMjUpHWyYNU2Kq-1">
          <mxGeometry x="180" y="70" width="40" height="40" as="geometry" />
        </mxCell>
        <mxCell id="_dNeO-rMjUpHWyYNU2Kq-20" value="" style="endArrow=open;html=1;rounded=0;endFill=0;exitX=1;exitY=0.5;exitDx=0;exitDy=0;entryX=0;entryY=0.5;entryDx=0;entryDy=0;" edge="1" parent="_dNeO-rMjUpHWyYNU2Kq-1">
          <mxGeometry width="50" height="50" relative="1" as="geometry">
            <mxPoint x="180" y="90" as="sourcePoint" />
            <mxPoint x="125" y="90" as="targetPoint" />
          </mxGeometry>
        </mxCell>
        <mxCell id="_dNeO-rMjUpHWyYNU2Kq-21" value="R&lt;sub&gt;6&lt;/sub&gt;" style="whiteSpace=wrap;html=1;aspect=fixed;strokeColor=default;fillColor=none;" vertex="1" parent="_dNeO-rMjUpHWyYNU2Kq-1">
          <mxGeometry x="182.5" y="2.5" width="35" height="35" as="geometry" />
        </mxCell>
        <mxCell id="_dNeO-rMjUpHWyYNU2Kq-22" value="" style="endArrow=open;html=1;rounded=0;endFill=0;entryX=0.5;entryY=1;entryDx=0;entryDy=0;" edge="1" parent="_dNeO-rMjUpHWyYNU2Kq-1" target="_dNeO-rMjUpHWyYNU2Kq-21">
          <mxGeometry width="50" height="50" relative="1" as="geometry">
            <mxPoint x="200" y="70" as="sourcePoint" />
            <mxPoint x="200" y="40" as="targetPoint" />
          </mxGeometry>
        </mxCell>
        <mxCell id="_dNeO-rMjUpHWyYNU2Kq-23" style="edgeStyle=orthogonalEdgeStyle;rounded=0;orthogonalLoop=1;jettySize=auto;html=1;entryX=0.5;entryY=1;entryDx=0;entryDy=0;endArrow=open;endFill=0;" edge="1" parent="_dNeO-rMjUpHWyYNU2Kq-1" source="_dNeO-rMjUpHWyYNU2Kq-24" target="_dNeO-rMjUpHWyYNU2Kq-11">
          <mxGeometry relative="1" as="geometry" />
        </mxCell>
        <mxCell id="_dNeO-rMjUpHWyYNU2Kq-24" value="P&lt;span style=&quot;font-size: 10px;&quot;&gt;&lt;sub&gt;6&lt;/sub&gt;&lt;/span&gt;" style="ellipse;whiteSpace=wrap;html=1;aspect=fixed;fillColor=none;" vertex="1" parent="_dNeO-rMjUpHWyYNU2Kq-1">
          <mxGeometry x="180" y="270" width="40" height="40" as="geometry" />
        </mxCell>
        <mxCell id="_dNeO-rMjUpHWyYNU2Kq-25" style="edgeStyle=orthogonalEdgeStyle;rounded=0;orthogonalLoop=1;jettySize=auto;html=1;entryX=0.5;entryY=1;entryDx=0;entryDy=0;endArrow=open;endFill=0;" edge="1" parent="_dNeO-rMjUpHWyYNU2Kq-1" source="_dNeO-rMjUpHWyYNU2Kq-3" target="_dNeO-rMjUpHWyYNU2Kq-2">
          <mxGeometry relative="1" as="geometry" />
        </mxCell>
        <mxCell id="_dNeO-rMjUpHWyYNU2Kq-26" value="" style="rounded=0;whiteSpace=wrap;html=1;fillColor=none;connectable=0;allowArrows=0;" vertex="1" parent="1">
          <mxGeometry x="30" y="50" width="80" height="180" as="geometry" />
        </mxCell>
        <mxCell id="_dNeO-rMjUpHWyYNU2Kq-27" value="" style="group" vertex="1" connectable="0" parent="1">
          <mxGeometry x="220" width="287.5" height="310" as="geometry" />
        </mxCell>
        <mxCell id="_dNeO-rMjUpHWyYNU2Kq-28" value="" style="endArrow=open;html=1;rounded=0;endFill=0;exitX=0.5;exitY=0;exitDx=0;exitDy=0;entryX=0.5;entryY=1;entryDx=0;entryDy=0;fillColor=#dae8fc;strokeColor=#6c8ebf;" edge="1" parent="_dNeO-rMjUpHWyYNU2Kq-27">
          <mxGeometry width="50" height="50" relative="1" as="geometry">
            <mxPoint x="108" y="210" as="sourcePoint" />
            <mxPoint x="108" y="180" as="targetPoint" />
            <Array as="points">
              <mxPoint x="108" y="190" />
            </Array>
          </mxGeometry>
        </mxCell>
        <mxCell id="_dNeO-rMjUpHWyYNU2Kq-29" value="" style="endArrow=open;html=1;rounded=0;endFill=0;exitX=0.5;exitY=1;exitDx=0;exitDy=0;entryX=0.5;entryY=1;entryDx=0;entryDy=0;bendable=0;fillColor=#dae8fc;strokeColor=#6c8ebf;" edge="1" parent="_dNeO-rMjUpHWyYNU2Kq-27" source="_dNeO-rMjUpHWyYNU2Kq-36">
          <mxGeometry width="50" height="50" relative="1" as="geometry">
            <mxPoint x="200.0300000000001" y="172.5" as="sourcePoint" />
            <mxPoint x="199.85000000000008" y="205" as="targetPoint" />
            <Array as="points">
              <mxPoint x="199.85000000000008" y="185" />
            </Array>
          </mxGeometry>
        </mxCell>
        <mxCell id="_dNeO-rMjUpHWyYNU2Kq-30" value="" style="group" vertex="1" connectable="0" parent="_dNeO-rMjUpHWyYNU2Kq-27">
          <mxGeometry width="287.5" height="310" as="geometry" />
        </mxCell>
        <mxCell id="_dNeO-rMjUpHWyYNU2Kq-31" value="P&lt;sub&gt;1&lt;/sub&gt;" style="ellipse;whiteSpace=wrap;html=1;aspect=fixed;fillColor=none;" vertex="1" parent="_dNeO-rMjUpHWyYNU2Kq-30">
          <mxGeometry y="70" width="40" height="40" as="geometry" />
        </mxCell>
        <mxCell id="_dNeO-rMjUpHWyYNU2Kq-32" value="R&lt;sub&gt;1&lt;/sub&gt;" style="whiteSpace=wrap;html=1;aspect=fixed;strokeColor=default;fillColor=none;" vertex="1" parent="_dNeO-rMjUpHWyYNU2Kq-30">
          <mxGeometry x="2.5" y="150" width="35" height="35" as="geometry" />
        </mxCell>
        <mxCell id="_dNeO-rMjUpHWyYNU2Kq-33" value="R&lt;sub&gt;2&lt;/sub&gt;" style="whiteSpace=wrap;html=1;aspect=fixed;strokeColor=default;fillColor=none;" vertex="1" parent="_dNeO-rMjUpHWyYNU2Kq-30">
          <mxGeometry x="90" y="75" width="35" height="35" as="geometry" />
        </mxCell>
        <mxCell id="_dNeO-rMjUpHWyYNU2Kq-34" value="" style="endArrow=open;html=1;rounded=0;endFill=0;exitX=1;exitY=0.5;exitDx=0;exitDy=0;entryX=0;entryY=0.426;entryDx=0;entryDy=0;entryPerimeter=0;" edge="1" parent="_dNeO-rMjUpHWyYNU2Kq-30" source="_dNeO-rMjUpHWyYNU2Kq-31" target="_dNeO-rMjUpHWyYNU2Kq-33">
          <mxGeometry width="50" height="50" relative="1" as="geometry">
            <mxPoint x="40" y="200" as="sourcePoint" />
            <mxPoint x="90" y="150" as="targetPoint" />
          </mxGeometry>
        </mxCell>
        <mxCell id="_dNeO-rMjUpHWyYNU2Kq-35" value="P&lt;sub&gt;2&lt;/sub&gt;" style="ellipse;whiteSpace=wrap;html=1;aspect=fixed;fillColor=none;" vertex="1" parent="_dNeO-rMjUpHWyYNU2Kq-30">
          <mxGeometry x="247.5" y="137.5" width="40" height="40" as="geometry" />
        </mxCell>
        <mxCell id="_dNeO-rMjUpHWyYNU2Kq-36" value="R&lt;sub&gt;3&lt;/sub&gt;" style="whiteSpace=wrap;html=1;aspect=fixed;strokeColor=#b85450;fillColor=#f8cecc;" vertex="1" parent="_dNeO-rMjUpHWyYNU2Kq-30">
          <mxGeometry x="182.5" y="142.5" width="35" height="35" as="geometry" />
        </mxCell>
        <mxCell id="_dNeO-rMjUpHWyYNU2Kq-37" value="P&lt;sub&gt;3&lt;/sub&gt;" style="ellipse;whiteSpace=wrap;html=1;aspect=fixed;fillColor=none;" vertex="1" parent="_dNeO-rMjUpHWyYNU2Kq-30">
          <mxGeometry x="87.5" width="40" height="40" as="geometry" />
        </mxCell>
        <mxCell id="_dNeO-rMjUpHWyYNU2Kq-38" value="" style="endArrow=open;html=1;rounded=0;endFill=0;exitX=0.5;exitY=1;exitDx=0;exitDy=0;entryX=0.5;entryY=0;entryDx=0;entryDy=0;" edge="1" parent="_dNeO-rMjUpHWyYNU2Kq-30" source="_dNeO-rMjUpHWyYNU2Kq-37" target="_dNeO-rMjUpHWyYNU2Kq-33">
          <mxGeometry width="50" height="50" relative="1" as="geometry">
            <mxPoint x="100" y="100" as="sourcePoint" />
            <mxPoint x="150" y="50" as="targetPoint" />
          </mxGeometry>
        </mxCell>
        <mxCell id="_dNeO-rMjUpHWyYNU2Kq-39" value="P&lt;span style=&quot;font-size: 10px;&quot;&gt;&lt;sub&gt;4&lt;/sub&gt;&lt;/span&gt;" style="ellipse;whiteSpace=wrap;html=1;aspect=fixed;fillColor=#f8cecc;strokeColor=#b85450;" vertex="1" parent="_dNeO-rMjUpHWyYNU2Kq-30">
          <mxGeometry x="87.5" y="140" width="40" height="40" as="geometry" />
        </mxCell>
        <mxCell id="_dNeO-rMjUpHWyYNU2Kq-40" value="R&lt;sub&gt;4&lt;/sub&gt;" style="whiteSpace=wrap;html=1;aspect=fixed;strokeColor=#b85450;fillColor=#f8cecc;" vertex="1" parent="_dNeO-rMjUpHWyYNU2Kq-30">
          <mxGeometry x="90" y="210" width="35" height="35" as="geometry" />
        </mxCell>
        <mxCell id="_dNeO-rMjUpHWyYNU2Kq-41" value="" style="endArrow=open;html=1;rounded=0;endFill=0;exitX=0.5;exitY=0;exitDx=0;exitDy=0;entryX=0.5;entryY=1;entryDx=0;entryDy=0;" edge="1" parent="_dNeO-rMjUpHWyYNU2Kq-30">
          <mxGeometry width="50" height="50" relative="1" as="geometry">
            <mxPoint x="107.32999999999998" y="140" as="sourcePoint" />
            <mxPoint x="107.32999999999998" y="110" as="targetPoint" />
            <Array as="points">
              <mxPoint x="107.32999999999998" y="120" />
            </Array>
          </mxGeometry>
        </mxCell>
        <mxCell id="_dNeO-rMjUpHWyYNU2Kq-42" value="" style="endArrow=open;html=1;rounded=0;endFill=0;exitX=1;exitY=0.5;exitDx=0;exitDy=0;entryX=0;entryY=0.5;entryDx=0;entryDy=0;fillColor=#dae8fc;strokeColor=#6c8ebf;" edge="1" parent="_dNeO-rMjUpHWyYNU2Kq-30" source="_dNeO-rMjUpHWyYNU2Kq-39" target="_dNeO-rMjUpHWyYNU2Kq-36">
          <mxGeometry width="50" height="50" relative="1" as="geometry">
            <mxPoint x="130" y="160" as="sourcePoint" />
            <mxPoint x="180" y="160" as="targetPoint" />
          </mxGeometry>
        </mxCell>
        <mxCell id="_dNeO-rMjUpHWyYNU2Kq-43" value="P&lt;span style=&quot;font-size: 10px;&quot;&gt;&lt;sub&gt;5&lt;/sub&gt;&lt;/span&gt;" style="ellipse;whiteSpace=wrap;html=1;aspect=fixed;fillColor=#f8cecc;strokeColor=#b85450;" vertex="1" parent="_dNeO-rMjUpHWyYNU2Kq-30">
          <mxGeometry x="180" y="205" width="40" height="40" as="geometry" />
        </mxCell>
        <mxCell id="_dNeO-rMjUpHWyYNU2Kq-44" style="edgeStyle=orthogonalEdgeStyle;rounded=0;orthogonalLoop=1;jettySize=auto;html=1;entryX=1;entryY=0.5;entryDx=0;entryDy=0;exitX=0.5;exitY=1;exitDx=0;exitDy=0;endArrow=open;endFill=0;fillColor=#dae8fc;strokeColor=#6c8ebf;" edge="1" parent="_dNeO-rMjUpHWyYNU2Kq-30" source="_dNeO-rMjUpHWyYNU2Kq-45" target="_dNeO-rMjUpHWyYNU2Kq-53">
          <mxGeometry relative="1" as="geometry">
            <Array as="points">
              <mxPoint x="267" y="250" />
              <mxPoint x="267" y="250" />
              <mxPoint x="267" y="290" />
            </Array>
          </mxGeometry>
        </mxCell>
        <mxCell id="_dNeO-rMjUpHWyYNU2Kq-45" value="R&lt;sub&gt;5&lt;/sub&gt;" style="whiteSpace=wrap;html=1;aspect=fixed;strokeColor=#b85450;fillColor=#f8cecc;" vertex="1" parent="_dNeO-rMjUpHWyYNU2Kq-30">
          <mxGeometry x="250" y="205" width="35" height="35" as="geometry" />
        </mxCell>
        <mxCell id="_dNeO-rMjUpHWyYNU2Kq-46" value="" style="endArrow=open;html=1;rounded=0;endFill=0;exitX=1;exitY=0.5;exitDx=0;exitDy=0;entryX=0.002;entryY=0.575;entryDx=0;entryDy=0;entryPerimeter=0;fillColor=#dae8fc;strokeColor=#6c8ebf;" edge="1" parent="_dNeO-rMjUpHWyYNU2Kq-30" source="_dNeO-rMjUpHWyYNU2Kq-43" target="_dNeO-rMjUpHWyYNU2Kq-45">
          <mxGeometry width="50" height="50" relative="1" as="geometry">
            <mxPoint x="210" y="224.89" as="sourcePoint" />
            <mxPoint x="265" y="224.89" as="targetPoint" />
          </mxGeometry>
        </mxCell>
        <mxCell id="_dNeO-rMjUpHWyYNU2Kq-47" value="" style="endArrow=open;html=1;rounded=0;endFill=0;exitX=1;exitY=0.5;exitDx=0;exitDy=0;entryX=0.002;entryY=0.575;entryDx=0;entryDy=0;entryPerimeter=0;" edge="1" parent="_dNeO-rMjUpHWyYNU2Kq-30">
          <mxGeometry width="50" height="50" relative="1" as="geometry">
            <mxPoint x="247" y="160" as="sourcePoint" />
            <mxPoint x="217" y="160" as="targetPoint" />
          </mxGeometry>
        </mxCell>
        <mxCell id="_dNeO-rMjUpHWyYNU2Kq-48" value="P&lt;span style=&quot;font-size: 10px;&quot;&gt;&lt;sub&gt;6&lt;/sub&gt;&lt;/span&gt;" style="ellipse;whiteSpace=wrap;html=1;aspect=fixed;fillColor=none;" vertex="1" parent="_dNeO-rMjUpHWyYNU2Kq-30">
          <mxGeometry x="180" y="70" width="40" height="40" as="geometry" />
        </mxCell>
        <mxCell id="_dNeO-rMjUpHWyYNU2Kq-49" value="" style="endArrow=open;html=1;rounded=0;endFill=0;exitX=1;exitY=0.5;exitDx=0;exitDy=0;entryX=0;entryY=0.5;entryDx=0;entryDy=0;" edge="1" parent="_dNeO-rMjUpHWyYNU2Kq-30">
          <mxGeometry width="50" height="50" relative="1" as="geometry">
            <mxPoint x="180" y="90" as="sourcePoint" />
            <mxPoint x="125" y="90" as="targetPoint" />
          </mxGeometry>
        </mxCell>
        <mxCell id="_dNeO-rMjUpHWyYNU2Kq-50" value="R&lt;sub&gt;6&lt;/sub&gt;" style="whiteSpace=wrap;html=1;aspect=fixed;strokeColor=default;fillColor=none;" vertex="1" parent="_dNeO-rMjUpHWyYNU2Kq-30">
          <mxGeometry x="182.5" y="2.5" width="35" height="35" as="geometry" />
        </mxCell>
        <mxCell id="_dNeO-rMjUpHWyYNU2Kq-51" value="" style="endArrow=open;html=1;rounded=0;endFill=0;entryX=0.5;entryY=1;entryDx=0;entryDy=0;" edge="1" parent="_dNeO-rMjUpHWyYNU2Kq-30" target="_dNeO-rMjUpHWyYNU2Kq-50">
          <mxGeometry width="50" height="50" relative="1" as="geometry">
            <mxPoint x="200" y="70" as="sourcePoint" />
            <mxPoint x="200" y="40" as="targetPoint" />
          </mxGeometry>
        </mxCell>
        <mxCell id="_dNeO-rMjUpHWyYNU2Kq-52" style="edgeStyle=orthogonalEdgeStyle;rounded=0;orthogonalLoop=1;jettySize=auto;html=1;entryX=0.5;entryY=1;entryDx=0;entryDy=0;endArrow=open;endFill=0;fillColor=#dae8fc;strokeColor=#6c8ebf;" edge="1" parent="_dNeO-rMjUpHWyYNU2Kq-30" source="_dNeO-rMjUpHWyYNU2Kq-53" target="_dNeO-rMjUpHWyYNU2Kq-40">
          <mxGeometry relative="1" as="geometry" />
        </mxCell>
        <mxCell id="_dNeO-rMjUpHWyYNU2Kq-53" value="P&lt;span style=&quot;font-size: 10px;&quot;&gt;&lt;sub&gt;6&lt;/sub&gt;&lt;/span&gt;" style="ellipse;whiteSpace=wrap;html=1;aspect=fixed;fillColor=#f8cecc;strokeColor=#b85450;" vertex="1" parent="_dNeO-rMjUpHWyYNU2Kq-30">
          <mxGeometry x="180" y="270" width="40" height="40" as="geometry" />
        </mxCell>
        <mxCell id="_dNeO-rMjUpHWyYNU2Kq-54" style="edgeStyle=orthogonalEdgeStyle;rounded=0;orthogonalLoop=1;jettySize=auto;html=1;entryX=0.5;entryY=1;entryDx=0;entryDy=0;endArrow=open;endFill=0;" edge="1" parent="_dNeO-rMjUpHWyYNU2Kq-30" source="_dNeO-rMjUpHWyYNU2Kq-32" target="_dNeO-rMjUpHWyYNU2Kq-31">
          <mxGeometry relative="1" as="geometry" />
        </mxCell>
        <mxCell id="_dNeO-rMjUpHWyYNU2Kq-55" value="P&lt;sub&gt;4&lt;/sub&gt;" style="text;html=1;align=center;verticalAlign=middle;whiteSpace=wrap;rounded=0;" vertex="1" parent="1">
          <mxGeometry x="55" y="200" width="30" height="30" as="geometry" />
        </mxCell>
        <mxCell id="_dNeO-rMjUpHWyYNU2Kq-56" value="&lt;sub&gt;&lt;span style=&quot;font-size: 12px;&quot;&gt;R&lt;sub&gt;3&lt;/sub&gt;&lt;/span&gt;&lt;/sub&gt;" style="text;html=1;align=center;verticalAlign=middle;whiteSpace=wrap;rounded=0;" vertex="1" parent="1">
          <mxGeometry x="55" y="170" width="30" height="30" as="geometry" />
        </mxCell>
        <mxCell id="_dNeO-rMjUpHWyYNU2Kq-57" value="P&lt;sub&gt;5&lt;/sub&gt;" style="text;html=1;align=center;verticalAlign=middle;whiteSpace=wrap;rounded=0;" vertex="1" parent="1">
          <mxGeometry x="50" y="140" width="40" height="30" as="geometry" />
        </mxCell>
        <mxCell id="_dNeO-rMjUpHWyYNU2Kq-58" value="&lt;sub&gt;&lt;span style=&quot;font-size: 12px;&quot;&gt;R&lt;sub&gt;5&lt;/sub&gt;&lt;/span&gt;&lt;/sub&gt;" style="text;html=1;align=center;verticalAlign=middle;whiteSpace=wrap;rounded=0;" vertex="1" parent="1">
          <mxGeometry x="50" y="110" width="40" height="30" as="geometry" />
        </mxCell>
        <mxCell id="_dNeO-rMjUpHWyYNU2Kq-59" value="P&lt;span style=&quot;font-size: 10px;&quot;&gt;&lt;sub&gt;6&lt;/sub&gt;&lt;/span&gt;" style="text;html=1;align=center;verticalAlign=middle;whiteSpace=wrap;rounded=0;" vertex="1" parent="1">
          <mxGeometry x="50" y="80" width="40" height="30" as="geometry" />
        </mxCell>
        <mxCell id="_dNeO-rMjUpHWyYNU2Kq-60" value="&lt;sub&gt;&lt;span style=&quot;font-size: 12px;&quot;&gt;R&lt;sub&gt;4&lt;/sub&gt;&lt;/span&gt;&lt;/sub&gt;" style="text;html=1;align=center;verticalAlign=middle;whiteSpace=wrap;rounded=0;" vertex="1" parent="1">
          <mxGeometry x="55" y="50" width="30" height="30" as="geometry" />
        </mxCell>
        <mxCell id="_dNeO-rMjUpHWyYNU2Kq-62" value="" style="endArrow=none;html=1;rounded=0;" edge="1" parent="1">
          <mxGeometry width="50" height="50" relative="1" as="geometry">
            <mxPoint x="30" y="200" as="sourcePoint" />
            <mxPoint x="110" y="200" as="targetPoint" />
          </mxGeometry>
        </mxCell>
        <mxCell id="_dNeO-rMjUpHWyYNU2Kq-63" value="" style="endArrow=none;html=1;rounded=0;" edge="1" parent="1">
          <mxGeometry width="50" height="50" relative="1" as="geometry">
            <mxPoint x="30" y="170" as="sourcePoint" />
            <mxPoint x="110" y="170" as="targetPoint" />
          </mxGeometry>
        </mxCell>
        <mxCell id="_dNeO-rMjUpHWyYNU2Kq-64" value="" style="endArrow=none;html=1;rounded=0;" edge="1" parent="1">
          <mxGeometry width="50" height="50" relative="1" as="geometry">
            <mxPoint x="30" y="139.87" as="sourcePoint" />
            <mxPoint x="110" y="139.87" as="targetPoint" />
          </mxGeometry>
        </mxCell>
        <mxCell id="_dNeO-rMjUpHWyYNU2Kq-65" value="" style="endArrow=none;html=1;rounded=0;" edge="1" parent="1">
          <mxGeometry width="50" height="50" relative="1" as="geometry">
            <mxPoint x="30" y="109.73" as="sourcePoint" />
            <mxPoint x="110" y="109.73" as="targetPoint" />
          </mxGeometry>
        </mxCell>
        <mxCell id="_dNeO-rMjUpHWyYNU2Kq-66" value="" style="endArrow=none;html=1;rounded=0;" edge="1" parent="1">
          <mxGeometry width="50" height="50" relative="1" as="geometry">
            <mxPoint x="30" y="79.73" as="sourcePoint" />
            <mxPoint x="110" y="79.73" as="targetPoint" />
          </mxGeometry>
        </mxCell>
        <mxCell id="_dNeO-rMjUpHWyYNU2Kq-67" value="&lt;font style=&quot;font-size: 16px;&quot;&gt;[&lt;/font&gt;&lt;font&gt;P&lt;sub style=&quot;&quot;&gt;4&amp;nbsp;&lt;/sub&gt;,R&lt;sub&gt;3&amp;nbsp;&lt;/sub&gt;,P&lt;sub&gt;5&lt;/sub&gt;&amp;nbsp;,R&lt;sub&gt;5 &lt;/sub&gt;,P&lt;sub&gt;6 &lt;/sub&gt;,R&lt;sub&gt;4&lt;/sub&gt;&lt;/font&gt;&lt;font style=&quot;font-size: 16px;&quot;&gt;]&lt;/font&gt;" style="text;html=1;align=left;verticalAlign=middle;whiteSpace=wrap;rounded=0;" vertex="1" parent="1">
          <mxGeometry x="13" y="250" width="130" height="30" as="geometry" />
        </mxCell>
        <mxCell id="_dNeO-rMjUpHWyYNU2Kq-68" value="" style="verticalLabelPosition=bottom;shadow=0;align=center;html=1;verticalAlign=top;strokeWidth=2;shape=mxgraph.mockup.markup.curlyBrace;whiteSpace=wrap;strokeColor=#000000;flipV=1;flipH=0;direction=south;" vertex="1" parent="1">
          <mxGeometry x="114" y="50" width="20" height="179" as="geometry" />
        </mxCell>
        <mxCell id="_dNeO-rMjUpHWyYNU2Kq-69" value="Cycle" style="text;html=1;align=center;verticalAlign=middle;whiteSpace=wrap;rounded=0;" vertex="1" parent="1">
          <mxGeometry x="126" y="123.5" width="60" height="30" as="geometry" />
        </mxCell>
        <mxCell id="_dNeO-rMjUpHWyYNU2Kq-70" value="P&lt;span style=&quot;font-size: 10px;&quot;&gt;&lt;sub&gt;4&lt;/sub&gt;&lt;/span&gt;" style="ellipse;whiteSpace=wrap;html=1;aspect=fixed;fillColor=#f8cecc;strokeColor=#b85450;" vertex="1" parent="1">
          <mxGeometry x="120" y="370" width="40" height="40" as="geometry" />
        </mxCell>
        <mxCell id="_dNeO-rMjUpHWyYNU2Kq-71" value="R&lt;sub&gt;3&lt;/sub&gt;" style="whiteSpace=wrap;html=1;aspect=fixed;strokeColor=#b85450;fillColor=#f8cecc;" vertex="1" parent="1">
          <mxGeometry x="220" y="372.5" width="35" height="35" as="geometry" />
        </mxCell>
        <mxCell id="_dNeO-rMjUpHWyYNU2Kq-73" value="P&lt;span style=&quot;font-size: 10px;&quot;&gt;&lt;sub&gt;5&lt;/sub&gt;&lt;/span&gt;" style="ellipse;whiteSpace=wrap;html=1;aspect=fixed;fillColor=#f8cecc;strokeColor=#b85450;" vertex="1" parent="1">
          <mxGeometry x="310" y="370" width="40" height="40" as="geometry" />
        </mxCell>
        <mxCell id="_dNeO-rMjUpHWyYNU2Kq-74" value="R&lt;sub&gt;5&lt;/sub&gt;" style="whiteSpace=wrap;html=1;aspect=fixed;strokeColor=#b85450;fillColor=#f8cecc;" vertex="1" parent="1">
          <mxGeometry x="312.5" y="450.5" width="35" height="35" as="geometry" />
        </mxCell>
        <mxCell id="_dNeO-rMjUpHWyYNU2Kq-75" value="P&lt;span style=&quot;font-size: 10px;&quot;&gt;&lt;sub&gt;6&lt;/sub&gt;&lt;/span&gt;" style="ellipse;whiteSpace=wrap;html=1;aspect=fixed;fillColor=#f8cecc;strokeColor=#b85450;" vertex="1" parent="1">
          <mxGeometry x="217.5" y="448" width="40" height="40" as="geometry" />
        </mxCell>
        <mxCell id="_dNeO-rMjUpHWyYNU2Kq-76" value="R&lt;sub&gt;4&lt;/sub&gt;" style="whiteSpace=wrap;html=1;aspect=fixed;strokeColor=#b85450;fillColor=#f8cecc;" vertex="1" parent="1">
          <mxGeometry x="122.5" y="453" width="35" height="35" as="geometry" />
        </mxCell>
        <mxCell id="_dNeO-rMjUpHWyYNU2Kq-77" value="" style="endArrow=open;html=1;rounded=0;endFill=0;exitX=1;exitY=0.5;exitDx=0;exitDy=0;entryX=0;entryY=0.5;entryDx=0;entryDy=0;fillColor=#dae8fc;strokeColor=#6c8ebf;" edge="1" parent="1" source="_dNeO-rMjUpHWyYNU2Kq-70" target="_dNeO-rMjUpHWyYNU2Kq-71">
          <mxGeometry width="50" height="50" relative="1" as="geometry">
            <mxPoint x="162.5" y="389.64" as="sourcePoint" />
            <mxPoint x="217.5" y="389.64" as="targetPoint" />
          </mxGeometry>
        </mxCell>
        <mxCell id="_dNeO-rMjUpHWyYNU2Kq-78" value="" style="endArrow=open;html=1;rounded=0;endFill=0;exitX=1;exitY=0.5;exitDx=0;exitDy=0;fillColor=#dae8fc;strokeColor=#6c8ebf;" edge="1" parent="1">
          <mxGeometry width="50" height="50" relative="1" as="geometry">
            <mxPoint x="255" y="389.83" as="sourcePoint" />
            <mxPoint x="310" y="390" as="targetPoint" />
          </mxGeometry>
        </mxCell>
        <mxCell id="_dNeO-rMjUpHWyYNU2Kq-79" value="" style="endArrow=open;html=1;rounded=0;endFill=0;exitX=1;exitY=0.5;exitDx=0;exitDy=0;fillColor=#dae8fc;strokeColor=#6c8ebf;" edge="1" parent="1">
          <mxGeometry width="50" height="50" relative="1" as="geometry">
            <mxPoint x="312.5" y="470.17" as="sourcePoint" />
            <mxPoint x="257.5" y="470" as="targetPoint" />
          </mxGeometry>
        </mxCell>
        <mxCell id="_dNeO-rMjUpHWyYNU2Kq-80" value="" style="endArrow=open;html=1;rounded=0;endFill=0;exitX=1;exitY=0.5;exitDx=0;exitDy=0;fillColor=#dae8fc;strokeColor=#6c8ebf;entryX=1;entryY=0.5;entryDx=0;entryDy=0;" edge="1" parent="1" target="_dNeO-rMjUpHWyYNU2Kq-76">
          <mxGeometry width="50" height="50" relative="1" as="geometry">
            <mxPoint x="217.5" y="470.17" as="sourcePoint" />
            <mxPoint x="162.5" y="470" as="targetPoint" />
          </mxGeometry>
        </mxCell>
        <mxCell id="_dNeO-rMjUpHWyYNU2Kq-83" value="" style="endArrow=open;html=1;rounded=0;endFill=0;exitX=0.5;exitY=0;exitDx=0;exitDy=0;entryX=0.5;entryY=1;entryDx=0;entryDy=0;fillColor=#dae8fc;strokeColor=#6c8ebf;" edge="1" parent="1" target="_dNeO-rMjUpHWyYNU2Kq-70">
          <mxGeometry width="50" height="50" relative="1" as="geometry">
            <mxPoint x="139.78" y="453" as="sourcePoint" />
            <mxPoint x="139.78" y="423" as="targetPoint" />
            <Array as="points" />
          </mxGeometry>
        </mxCell>
        <mxCell id="_dNeO-rMjUpHWyYNU2Kq-84" value="" style="endArrow=open;html=1;rounded=0;endFill=0;fillColor=#dae8fc;strokeColor=#6c8ebf;" edge="1" parent="1">
          <mxGeometry width="50" height="50" relative="1" as="geometry">
            <mxPoint x="330.07000000000005" y="410" as="sourcePoint" />
            <mxPoint x="330" y="450" as="targetPoint" />
            <Array as="points" />
          </mxGeometry>
        </mxCell>
      </root>
    </mxGraphModel>
  </diagram>
</mxfile>
